<svg xmlns="http://www.w3.org/2000/svg" xmlns:xlink="http://www.w3.org/1999/xlink" xmlns:lucid="lucid" viewport="0 0 5120px 1380px"><g transform="translate(-40 -440)" lucid:page-tab-id="0_0"><path d="M0 0h3456v1360H0z" fill="#fff"/><path d="M1380 466c0-3.3 2.7-6 6-6h408c3.3 0 6 2.7 6 6v328c0 3.3-2.7 6-6 6h-408c-3.3 0-6-2.7-6-6zM60 466c0-3.3 2.7-6 6-6h408c3.3 0 6 2.7 6 6v328c0 3.3-2.7 6-6 6H66c-3.3 0-6-2.7-6-6zM500 466c0-3.3 2.7-6 6-6h408c3.3 0 6 2.7 6 6v328c0 3.3-2.7 6-6 6H506c-3.3 0-6-2.7-6-6z" stroke="#5e5e5e" stroke-width="3" fill="#fff" fill-opacity="0"/><path d="M940 466c0-3.3 2.7-6 6-6h408c3.3 0 6 2.7 6 6v328c0 3.3-2.7 6-6 6H946c-3.3 0-6-2.7-6-6z" stroke="#5e5e5e" stroke-width="3" fill="#ffbbb1"/><path d="M100 566c0-3.3 2.7-6 6-6h188c3.3 0 6 2.7 6 6v188c0 3.3-2.7 6-6 6H106c-3.3 0-6-2.7-6-6z" fill="#0c7cba"/><path d="M1300 590c0 60.75-49.25 110-110 110s-110-49.25-110-110 49.25-110 110-110 110 49.25 110 110z" fill="#fff"/><path d="M860 590c0 60.75-49.25 110-110 110s-110-49.25-110-110 49.25-110 110-110 110 49.25 110 110z" fill="#c92d39"/><path d="M1420 566c0-3.3 2.7-6 6-6h188c3.3 0 6 2.7 6 6v188c0 3.3-2.7 6-6 6h-188c-3.3 0-6-2.7-6-6z" fill="#0c7cba"/><path d="M1740 590c0 60.75-49.25 110-110 110s-110-49.25-110-110 49.25-110 110-110 110 49.25 110 110z" fill="#fff"/><path d="M160 806c0-3.3 2.7-6 6-6h228c3.3 0 6 2.7 6 6v48c0 3.3-2.7 6-6 6H166c-3.3 0-6-2.7-6-6z" stroke="#000" stroke-opacity="0" stroke-width="3" fill="#fff" fill-opacity="0"/><use xlink:href="#a" transform="matrix(1,0,0,1,165,805) translate(55.37037037037038 31.138888888888886)"/><use xlink:href="#b" transform="matrix(1,0,0,1,165,805) translate(153.88888888888889 31.138888888888886)"/><path d="M600 806c0-3.3 2.7-6 6-6h228c3.3 0 6 2.7 6 6v48c0 3.3-2.7 6-6 6H606c-3.3 0-6-2.7-6-6z" stroke="#000" stroke-opacity="0" stroke-width="3" fill="#fff" fill-opacity="0"/><use xlink:href="#a" transform="matrix(1,0,0,1,605,805) translate(55.37037037037038 31.138888888888886)"/><use xlink:href="#c" transform="matrix(1,0,0,1,605,805) translate(153.88888888888889 31.138888888888886)"/><path d="M1040 806c0-3.3 2.7-6 6-6h228c3.3 0 6 2.7 6 6v48c0 3.3-2.7 6-6 6h-228c-3.3 0-6-2.7-6-6z" stroke="#000" stroke-opacity="0" stroke-width="3" fill="#fff" fill-opacity="0"/><use xlink:href="#d" transform="matrix(1,0,0,1,1045,805) translate(49.3641975308642 31.138888888888886)"/><use xlink:href="#e" transform="matrix(1,0,0,1,1045,805) translate(78.74691358024691 31.138888888888886)"/><path d="M1460 794.73c0-3.3 2.7-6 6-6h228c3.3 0 6 2.7 6 6V894c0 3.3-2.7 6-6 6h-228c-3.3 0-6-2.7-6-6z" stroke="#000" stroke-opacity="0" stroke-width="3" fill="#fff" fill-opacity="0"/><use xlink:href="#f" transform="matrix(1,0,0,1,1465,793.7333333333333) translate(84.02222222222223 40.11527777777778)"/><use xlink:href="#g" transform="matrix(1,0,0,1,1465,793.7333333333333) translate(12.706172839506195 76.38194444444444)"/><use xlink:href="#h" transform="matrix(1,0,0,1,1465,793.7333333333333) translate(133.42716049382716 76.38194444444444)"/><use xlink:href="#i" transform="matrix(1,0,0,1,1465,793.7333333333333) translate(167.00740740740738 76.38194444444444)"/><path d="M1591 809h18M1591.03 809H1590M1608.98 809h1.02" stroke="#5e5e5e" stroke-width="2" fill="none"/><defs><path fill="#333" d="M185-189c-5-48-123-54-124 2 14 75 158 14 163 119 3 78-121 87-175 55-17-10-28-26-33-46l33-7c5 56 141 63 141-1 0-78-155-14-162-118-5-82 145-84 179-34 5 7 8 16 11 25" id="j"/><path fill="#333" d="M106-169C34-169 62-67 57 0H25v-261h32l-1 103c12-21 28-36 61-36 89 0 53 116 60 194h-32v-121c2-32-8-49-39-48" id="k"/><path fill="#333" d="M141-36C126-15 110 5 73 4 37 3 15-17 15-53c-1-64 63-63 125-63 3-35-9-54-41-54-24 1-41 7-42 31l-33-3c5-37 33-52 76-52 45 0 72 20 72 64v82c-1 20 7 32 28 27v20c-31 9-61-2-59-35zM48-53c0 20 12 33 32 33 41-3 63-29 60-74-43 2-92-5-92 41" id="l"/><path fill="#333" d="M115-194c55 1 70 41 70 98S169 2 115 4C84 4 66-9 55-30l1 105H24l-1-265h31l2 30c10-21 28-34 59-34zm-8 174c40 0 45-34 45-75s-6-73-45-74c-42 0-51 32-51 76 0 43 10 73 51 73" id="m"/><path fill="#333" d="M100-194c63 0 86 42 84 106H49c0 40 14 67 53 68 26 1 43-12 49-29l28 8c-11 28-37 45-77 45C44 4 14-33 15-96c1-61 26-98 85-98zm52 81c6-60-76-77-97-28-3 7-6 17-6 28h103" id="n"/><g id="a"><use transform="matrix(0.08641975308641973,0,0,0.08641975308641973,0,0)" xlink:href="#j"/><use transform="matrix(0.08641975308641973,0,0,0.08641975308641973,20.740740740740737,0)" xlink:href="#k"/><use transform="matrix(0.08641975308641973,0,0,0.08641975308641973,38.02469135802468,0)" xlink:href="#l"/><use transform="matrix(0.08641975308641973,0,0,0.08641975308641973,55.30864197530863,0)" xlink:href="#m"/><use transform="matrix(0.08641975308641973,0,0,0.08641975308641973,72.59259259259258,0)" xlink:href="#n"/></g><path fill="#333" d="M205 0l-28-72H64L36 0H1l101-248h38L239 0h-34zm-38-99l-47-123c-12 45-31 82-46 123h93" id="o"/><use transform="matrix(0.08641975308641973,0,0,0.08641975308641973,0,0)" xlink:href="#o" id="b"/><path fill="#333" d="M160-131c35 5 61 23 61 61C221 17 115-2 30 0v-248c76 3 177-17 177 60 0 33-19 50-47 57zm-97-11c50-1 110 9 110-42 0-47-63-36-110-37v79zm0 115c55-2 124 14 124-45 0-56-70-42-124-44v89" id="p"/><use transform="matrix(0.08641975308641973,0,0,0.08641975308641973,0,0)" xlink:href="#p" id="c"/><use transform="matrix(0.08641975308641973,0,0,0.08641975308641973,0,0)" xlink:href="#p" id="d"/><path fill="#333" d="M33 0v-248h34V0H33" id="q"/><path fill="#333" d="M117-194c89-4 53 116 60 194h-32v-121c0-31-8-49-39-48C34-167 62-67 57 0H25l-1-190h30c1 10-1 24 2 32 11-22 29-35 61-36" id="r"/><path fill="#333" d="M108 0H70L1-190h34L89-25l56-165h34" id="s"/><path fill="#333" d="M114-163C36-179 61-72 57 0H25l-1-190h30c1 12-1 29 2 39 6-27 23-49 58-41v29" id="t"/><path fill="#333" d="M135-143c-3-34-86-38-87 0 15 53 115 12 119 90S17 21 10-45l28-5c4 36 97 45 98 0-10-56-113-15-118-90-4-57 82-63 122-42 12 7 21 19 24 35" id="u"/><g id="e"><use transform="matrix(0.08641975308641973,0,0,0.08641975308641973,0,0)" xlink:href="#q"/><use transform="matrix(0.08641975308641973,0,0,0.08641975308641973,8.641975308641973,0)" xlink:href="#r"/><use transform="matrix(0.08641975308641973,0,0,0.08641975308641973,25.925925925925917,0)" xlink:href="#s"/><use transform="matrix(0.08641975308641973,0,0,0.08641975308641973,41.48148148148147,0)" xlink:href="#n"/><use transform="matrix(0.08641975308641973,0,0,0.08641975308641973,58.765432098765416,0)" xlink:href="#t"/><use transform="matrix(0.08641975308641973,0,0,0.08641975308641973,69.04938271604937,0)" xlink:href="#u"/><use transform="matrix(0.08641975308641973,0,0,0.08641975308641973,84.60493827160492,0)" xlink:href="#n"/></g><path fill="#202124" d="M205 0l-28-72H64L36 0H1l101-248h38L239 0h-34zm-38-99l-47-123c-12 45-31 82-46 123h93" id="v"/><path fill="#202124" d="M129-163C54-163 68-74 67 0H49c-3-89-6-181 80-181s84 91 81 181h-18s12-163-63-163" id="w"/><path fill="#202124" d="M160-131c35 5 61 23 61 61C221 17 115-2 30 0v-248c76 3 177-17 177 60 0 33-19 50-47 57zm-97-11c50-1 110 9 110-42 0-47-63-36-110-37v79zm0 115c55-2 124 14 124-45 0-56-70-42-124-44v89" id="x"/><g id="f"><use transform="matrix(0.0839506172839506,0,0,0.0839506172839506,0,0)" xlink:href="#v"/><use transform="matrix(0.0839506172839506,0,0,0.0839506172839506,20.148148148148145,0)" xlink:href="#w"/><use transform="matrix(0.0839506172839506,0,0,0.0839506172839506,41.807407407407396,0)" xlink:href="#x"/></g><path fill="#202124" d="M33 0v-248h34V0H33" id="y"/><path fill="#202124" d="M85-194c31 0 48 13 60 33l-1-100h32l1 261h-30c-2-10 0-23-3-31C134-8 116 4 85 4 32 4 16-35 15-94c0-66 23-100 70-100zm9 24c-40 0-46 34-46 75 0 40 6 74 45 74 42 0 51-32 51-76 0-42-9-74-50-73" id="z"/><path fill="#202124" d="M100-194c63 0 86 42 84 106H49c0 40 14 67 53 68 26 1 43-12 49-29l28 8c-11 28-37 45-77 45C44 4 14-33 15-96c1-61 26-98 85-98zm52 81c6-60-76-77-97-28-3 7-6 17-6 28h103" id="A"/><path fill="#202124" d="M117-194c89-4 53 116 60 194h-32v-121c0-31-8-49-39-48C34-167 62-67 57 0H25l-1-190h30c1 10-1 24 2 32 11-22 29-35 61-36" id="B"/><path fill="#202124" d="M59-47c-2 24 18 29 38 22v24C64 9 27 4 27-40v-127H5v-23h24l9-43h21v43h35v23H59v120" id="C"/><path fill="#202124" d="M24-231v-30h32v30H24zM24 0v-190h32V0H24" id="D"/><path fill="#202124" d="M96-169c-40 0-48 33-48 73s9 75 48 75c24 0 41-14 43-38l32 2c-6 37-31 61-74 61-59 0-76-41-82-99-10-93 101-131 147-64 4 7 5 14 7 22l-32 3c-4-21-16-35-41-35" id="E"/><path fill="#202124" d="M141-36C126-15 110 5 73 4 37 3 15-17 15-53c-1-64 63-63 125-63 3-35-9-54-41-54-24 1-41 7-42 31l-33-3c5-37 33-52 76-52 45 0 72 20 72 64v82c-1 20 7 32 28 27v20c-31 9-61-2-59-35zM48-53c0 20 12 33 32 33 41-3 63-29 60-74-43 2-92-5-92 41" id="F"/><path fill="#202124" d="M24 0v-261h32V0H24" id="G"/><g id="g"><use transform="matrix(0.0839506172839506,0,0,0.0839506172839506,0,0)" xlink:href="#y"/><use transform="matrix(0.0839506172839506,0,0,0.0839506172839506,8.39506172839506,0)" xlink:href="#z"/><use transform="matrix(0.0839506172839506,0,0,0.0839506172839506,25.18518518518518,0)" xlink:href="#A"/><use transform="matrix(0.0839506172839506,0,0,0.0839506172839506,41.9753086419753,0)" xlink:href="#B"/><use transform="matrix(0.0839506172839506,0,0,0.0839506172839506,58.76543209876542,0)" xlink:href="#C"/><use transform="matrix(0.0839506172839506,0,0,0.0839506172839506,67.16049382716048,0)" xlink:href="#D"/><use transform="matrix(0.0839506172839506,0,0,0.0839506172839506,73.79259259259257,0)" xlink:href="#E"/><use transform="matrix(0.0839506172839506,0,0,0.0839506172839506,88.90370370370368,0)" xlink:href="#F"/><use transform="matrix(0.0839506172839506,0,0,0.0839506172839506,105.69382716049381,0)" xlink:href="#G"/></g><path fill="#202124" d="M100-194c62-1 85 37 85 99 1 63-27 99-86 99S16-35 15-95c0-66 28-99 85-99zM99-20c44 1 53-31 53-75 0-43-8-75-51-75s-53 32-53 75 10 74 51 75" id="H"/><g id="h"><use transform="matrix(0.0839506172839506,0,0,0.0839506172839506,0,0)" xlink:href="#C"/><use transform="matrix(0.0839506172839506,0,0,0.0839506172839506,8.39506172839506,0)" xlink:href="#H"/></g><path fill="#202124" d="M16-82v-28h88v28H16" id="I"/><g id="i"><use transform="matrix(0.0839506172839506,0,0,0.0839506172839506,0,0)" xlink:href="#v"/><use transform="matrix(0.0839506172839506,0,0,0.0839506172839506,20.148148148148145,0)" xlink:href="#I"/><use transform="matrix(0.0839506172839506,0,0,0.0839506172839506,30.138271604938268,0)" xlink:href="#x"/></g></defs></g></svg>